<?xml version="1.0" encoding="UTF-8" standalone="no"?>
<!-- Created with Inkscape (http://www.inkscape.org/) -->

<svg
   version="1.1"
   id="svg2"
   width="537.26709"
   height="533.26373"
   viewBox="0 0 537.26708 533.26374"
   sodipodi:docname="naverlabs.svg"
   xml:space="preserve"
   inkscape:version="1.2.2 (732a01da63, 2022-12-09)"
   xmlns:inkscape="http://www.inkscape.org/namespaces/inkscape"
   xmlns:sodipodi="http://sodipodi.sourceforge.net/DTD/sodipodi-0.dtd"
   xmlns="http://www.w3.org/2000/svg"
   xmlns:svg="http://www.w3.org/2000/svg"><defs
     id="defs6"><clipPath
       clipPathUnits="userSpaceOnUse"
       id="clipPath16"><path
         d="M 0,595.28 H 841.89 V 0 H 0 Z"
         id="path14" /></clipPath></defs><sodipodi:namedview
     id="namedview4"
     pagecolor="#ffffff"
     bordercolor="#000000"
     borderopacity="0.25"
     inkscape:showpageshadow="2"
     inkscape:pageopacity="0.0"
     inkscape:pagecheckerboard="0"
     inkscape:deskcolor="#d1d1d1"
     showgrid="false"
     inkscape:zoom="1.0444665"
     inkscape:cx="301.58938"
     inkscape:cy="307.33394"
     inkscape:window-width="1920"
     inkscape:window-height="1009"
     inkscape:window-x="-8"
     inkscape:window-y="-8"
     inkscape:window-maximized="1"
     inkscape:current-layer="g8" /><g
     id="g8"
     inkscape:groupmode="layer"
     inkscape:label="워드마크"
     transform="matrix(1.3333333,0,0,-1.3333333,-743.92041,793.70667)"><path
       id="path148"
       d="M 557.94032,595.28002 V 395.30553 195.33221 h 201.47565 201.4746 V 395.30553 595.28002 H 759.41597 Z M 666.73697,467.37706 v -30.07698 -29.99612 h -9.10652 -9.18798 l -10.95995,15.75851 -11.04021,15.67765 v -15.67765 -15.75851 h -9.67081 c -5.88308,0 -9.67082,0.32036 -9.67082,0.8003 v 29.59655 29.19583 c 0,0.23998 4.11026,0.3202 9.02625,0.24021 l 9.02507,-0.24021 10.96112,-15.43745 10.87966,-15.51831 0.40256,15.51831 0.40256,15.43745 9.51026,0.24021 z m 162.5505,-0.0809 h 22.8063 v -7.59863 -7.59862 h -13.6999 -13.6998 v -4.00027 -3.99909 h 13.6998 13.6999 v -7.19907 -7.19907 h -13.6999 -13.6998 v -3.99909 -4.00025 h 14.1024 14.1036 v -7.19908 -7.19907 h -23.7744 -23.7733 v 29.43604 c 0,16.23788 0.2419,29.75616 0.5643,29.99612 0.2418,0.31996 10.7987,0.56008 23.3708,0.56008 z m 33.2835,0 h 13.1356 c 7.1725,0 15.7966,-0.39916 19.1008,-0.79912 8.5426,-1.11984 15.7149,-4.79993 18.7774,-9.75929 5.8831,-9.35876 2.6586,-23.03669 -6.4481,-27.67608 l -2.8203,-1.44006 7.3334,-9.75812 c 4.0296,-5.3593 7.3346,-9.91887 7.3346,-10.15882 0,-0.23997 -4.4329,-0.40075 -9.8326,-0.40075 l -9.9127,0.0809 -5.6406,8.31805 -5.6416,8.31923 -3.3846,0.0797 h -3.466 v -8.39891 -8.39891 h -9.2671 -9.2682 v 29.99611 z m -121.7718,-0.0797 c 8.6232,0.08 9.7519,-0.0793 10.4772,-1.35919 1.1282,-2.07973 12.975,-35.1163 12.975,-36.07618 0,-3.35956 2.2563,1.60034 8.22,18.15819 l 6.8505,18.95732 9.7512,0.2402 c 5.3994,0.08 9.8313,-0.0808 9.8313,-0.40073 0,-0.31996 -5.1579,-13.83792 -11.4439,-30.0758 l -11.5243,-29.35636 -10.718,0.16054 -10.7993,0.2402 -11.202,28.39554 c -6.1248,15.59796 -11.3626,28.95718 -11.6044,29.75708 -0.403,1.11986 0.5637,1.2792 9.1867,1.35919 z m -33.0416,-0.0797 10.1538,-0.2402 11.4439,-28.79628 c 6.2861,-15.83793 11.4439,-29.27565 11.4439,-29.83558 0.081,-0.7999 -2.1759,-0.96026 -9.6707,-0.80028 l -9.7512,0.2402 -1.4508,3.59953 -1.4508,3.59953 -11.2823,0.23904 -11.28224,0.24019 -1.37057,-4.07876 -1.37058,-4.00027 H 683.0966 c -7.73664,0 -9.99316,0.2406 -9.67081,1.04049 0.24177,0.47995 5.3997,13.59763 11.44396,28.95562 6.12484,15.438 11.44324,28.47657 11.92678,29.03649 0.56414,0.7199 3.46624,0.96026 10.96104,0.80028 z m 173.3487,-15.19844 v -6.3191 -6.31911 h 5.964 c 7.0918,0 10.1548,1.75985 10.1548,5.67935 0,5.19932 -2.6597,6.87887 -11.1216,6.95886 z m -173.8657,-4.68689 c -0.2039,-0.0525 -0.4301,-0.35198 -0.6115,-0.83192 -0.1612,-0.63992 -1.6122,-4.63988 -3.224,-8.87932 l -2.8202,-7.83884 h 6.4467 c 3.546,0 6.4481,0.23982 6.4481,0.63977 0,0.71991 -5.6414,16.39757 -6.0444,16.8775 -0.06,0.04 -0.1266,0.0503 -0.1947,0.0328 z M 607.10068,383.30697 h 9.67082 9.67081 v -21.5972 -21.5972 l 16.43991,-0.15936 16.52136,-0.2402 -2.98198,-7.59862 -3.06227,-7.59981 -23.12991,-0.23903 -23.12874,-0.16052 v 29.59657 z m 88.89074,0 h 10.71795 l 2.4991,-6.5593 c 1.37,-3.67951 6.3663,-16.23783 10.96,-27.91631 4.6742,-11.67848 8.7029,-21.99653 8.9447,-22.95639 0.5642,-1.75978 0.4835,-1.75994 -9.3485,-1.75994 h -9.9117 l -1.4508,3.9991 -1.4508,4.00026 h -11.20196 -11.12167 l -1.36941,-4.00026 -1.37058,-3.9991 h -9.99309 c -5.48013,0 -9.99309,0.1599 -9.99309,0.31988 0,0.15998 2.17561,5.75942 4.91568,12.55853 2.65947,6.79911 7.73743,19.67693 11.28339,28.63575 3.54596,8.95883 6.60761,16.55839 6.84938,16.95835 0.24178,0.39994 5.23891,0.71943 11.0414,0.71943 z m 39.24765,0 h 20.7913 c 18.6162,0 21.0343,-0.1599 24.0966,-1.51972 2.0953,-0.95988 4.1914,-2.79933 5.5615,-4.87906 1.9342,-2.87962 2.256,-4.15939 2.256,-8.71878 -0.081,-6.1592 -1.7726,-9.99903 -5.238,-11.91877 -1.2895,-0.7999 -2.3375,-1.51996 -2.3375,-1.75994 0,-0.23997 1.29,-1.11907 2.9017,-1.99896 3.6267,-1.91974 5.1579,-4.16023 6.0444,-8.79965 1.5311,-7.91896 -2.2575,-16.31716 -8.2212,-18.4769 -1.9341,-0.7199 -9.2675,-1.04049 -24.2573,-1.04049 l -21.5975,-0.0797 v 29.59657 z m 91.1466,0 h 20.7122 l -3.0622,-7.75915 -3.0623,-7.83882 -13.7813,-0.23904 c -10.8797,-0.15998 -13.7815,-0.4008 -13.7815,-1.28068 0,-0.63992 4.9969,-3.11962 12.3305,-5.99924 6.6891,-2.71964 13.6204,-5.839 15.2323,-6.95886 4.1907,-2.63965 6.2851,-7.11939 6.2851,-13.11861 0,-6.1592 -2.0955,-10.47801 -6.6086,-13.35765 l -3.3031,-2.24034 -20.4702,-0.23903 -20.4702,-0.2402 0.2421,7.83883 0.2419,7.83883 15.956,0.2402 c 14.8285,0.15998 15.8767,0.31926 15.8767,1.67908 0,1.11985 -2.5789,2.48023 -11.7663,6.15976 -6.4471,2.55965 -12.8132,5.27901 -14.0221,6.07889 -7.4949,4.47942 -9.5099,17.11772 -3.8686,24.31677 4.0295,4.95935 4.6738,5.11926 27.3196,5.11926 z m -65.6806,-13.59775 c -3.2235,0 -6.1247,-0.24012 -6.3665,-0.56007 -0.3223,-0.23997 -0.5643,-2.39969 -0.5643,-4.79939 v -4.23929 h 6.3665 c 7.1725,0 8.9461,0.95987 8.9461,4.79938 0,3.75952 -1.7733,4.79937 -8.3818,4.79937 z m -64.82697,-6.30621 c -0.28618,0.16076 -0.50126,-0.20294 -0.77326,-0.89285 -0.40294,-1.11986 -1.69199,-4.47904 -2.82026,-7.59863 -1.12825,-3.03959 -2.25707,-6.24013 -2.57943,-6.96002 -0.48354,-1.27984 0.0806,-1.43888 6.04426,-1.43888 7.57546,0 7.25306,-1.35983 2.74006,10.79859 -1.46077,4.09946 -2.13446,5.82385 -2.61137,6.09179 z m 57.81597,-15.29099 0.242,-4.9599 0.2408,-5.03841 6.0443,-0.24019 c 7.8172,-0.23998 9.993,0.79957 10.3154,4.87904 0.4029,4.79938 -0.5634,5.35946 -9.2672,5.35946 z"
       style="stroke-width:0.0802894" /><path
       id="rect14167"
       style="opacity:1;fill:#ffffff;fill-opacity:1;fill-rule:evenodd;stroke:none;stroke-width:0.875903;stroke-linejoin:round;paint-order:fill markers stroke"
       d="M 557.9401,495.29446 V 295.31984 h 10e-4 v 99.98584 99.98731 h 402.94923 v 0.001 z m 108.79687,-27.917 -9.42773,-0.24023 -9.51123,-0.24023 -0.40283,-15.43799 -0.40137,-15.51856 -10.88086,15.51856 -10.95996,15.43799 -9.0249,0.24023 c -4.91599,0.08 -9.02637,-2.5e-4 -9.02637,-0.24023 v -29.19581 -29.59717 c 0,-0.47994 3.78782,-0.7998 9.6709,-0.7998 h 9.6709 v 15.75879 15.67676 l 11.03906,-15.67676 10.95996,-15.75879 h 9.18897 9.10546 v 29.9956 z m 162.55079,-0.0806 c -12.57208,0 -23.12832,-0.24108 -23.37012,-0.56104 -0.3224,-0.23996 -0.56543,-13.75775 -0.56543,-29.99561 v -29.43603 h 23.77442 23.77441 v 7.19971 7.19824 h -14.10351 -14.10352 v 4.00049 3.99902 h 13.70068 13.69922 v 7.19971 7.19824 h -13.69922 -13.70068 v 3.99902 4.00049 h 13.70068 13.69922 v 7.59815 7.59961 z m 33.28418,0 v -29.99708 -29.9956 h 9.26807 9.2666 v 8.39941 8.39795 h 3.46582 l 3.38525,-0.0791 5.64112,-8.31885 5.64111,-8.31885 9.9126,-0.0806 c 5.39968,0 9.83203,0.1614 9.83203,0.40137 0,0.23994 -3.30489,4.79939 -7.33447,10.15869 l -7.33301,9.75732 2.81982,1.43994 c 9.10668,4.63939 12.33133,18.31802 6.44825,27.67676 -3.0625,4.95935 -10.23526,8.63895 -18.77784,9.75879 -3.30418,0.39996 -11.9276,0.79981 -19.1001,0.79981 z m -116.59863,-0.0791 c -1.32978,0.0241 -3.01805,0.0185 -5.17383,-10e-4 -8.62299,-0.08 -9.58904,-0.23951 -9.18604,-1.35937 0.2418,-0.7999 5.47971,-14.15892 11.60449,-29.75684 l 11.20166,-28.39453 10.79883,-0.24024 10.71826,-0.16113 11.52393,29.35693 c 6.28598,16.23785 11.44483,29.75475 11.44483,30.07471 0,0.31997 -4.43264,0.48137 -9.83204,0.40137 l -9.75146,-0.24023 -6.84961,-18.95802 c -5.96369,-16.55781 -8.2207,-21.51776 -8.2207,-18.1582 0,0.95988 -11.84593,33.99645 -12.97413,36.07618 -0.54397,0.95992 -1.31484,1.28984 -5.30419,1.36084 z m -43.01075,-0.0366 c -4.00463,-0.0337 -5.74242,-0.30382 -6.16553,-0.84375 -0.48354,-0.55991 -5.80193,-13.59962 -11.92675,-29.0376 -6.04426,-15.35795 -11.20159,-28.47562 -11.44336,-28.95556 -0.32235,-0.79989 1.93427,-1.04004 9.6709,-1.04004 h 10.07226 l 1.37109,4.00049 1.3711,4.07812 11.28223,-0.24023 11.28222,-0.23877 1.4502,-3.59912 1.45019,-3.59912 9.75147,-0.24024 c 7.49478,-0.15998 9.7519,-9e-5 9.6709,0.79981 0,0.55992 -5.15728,13.99804 -11.44336,29.83593 l -11.44483,28.79591 -10.15283,0.24023 c -1.8737,0.04 -3.46102,0.0552 -4.7959,0.0439 z M 881.10661,451.938 h 4.99805 c 8.46188,-0.08 11.12109,-1.7587 11.12109,-6.95801 0,-3.9195 -3.0625,-5.6792 -10.1543,-5.6792 h -5.96484 v 6.31934 z m -173.86524,-4.68604 c 0.0681,0.0175 0.13482,0.006 0.19482,-0.0337 0.403,-0.47993 6.04395,-16.15655 6.04395,-16.87646 0,-0.39995 -2.90226,-0.64014 -6.44824,-0.64014 h -6.44678 l 2.81982,7.83838 c 1.6118,4.23942 3.06293,8.23996 3.22413,8.87988 0.1814,0.47994 0.4084,0.77953 0.6123,0.83203 z M 607.10172,383.30715 v -29.59571 -29.5957 l 23.12842,0.15967 23.12988,0.23877 3.06152,7.60107 2.98243,7.59815 -16.52051,0.24023 -16.43994,0.15967 v 21.59619 21.59766 h -9.6709 z m 88.88965,0 c -5.80247,0 -10.79875,-0.3193 -11.04053,-0.71924 -0.24177,-0.39996 -3.30365,-7.99969 -6.84961,-16.9585 -3.54594,-8.9588 -8.62422,-21.83714 -11.28369,-28.63623 -2.74007,-6.79909 -4.91601,-12.39813 -4.91601,-12.5581 0,-0.15998 4.51304,-0.31934 9.99316,-0.31934 h 9.99316 l 1.3711,3.99902 1.36963,4.00049 h 11.12109 11.20166 l 1.45166,-4.00049 1.4502,-3.99902 h 9.91259 c 9.83199,0 9.91284,-5e-4 9.34864,1.75928 -0.2418,0.95985 -4.27162,11.27857 -8.9458,22.95703 -4.5937,11.67846 -9.58998,24.23603 -10.95996,27.91553 l -2.49903,6.55957 z m 39.24756,0 v -29.59571 -29.5957 l 21.59766,0.0791 c 14.98976,0 22.32371,0.32014 24.25781,1.04004 5.96368,2.15974 9.7518,10.5586 8.2207,18.47754 -0.8865,4.6394 -2.41726,6.87959 -6.04394,8.79932 -1.6117,0.87988 -2.90186,1.75954 -2.90186,1.99951 0,0.23998 1.04839,0.95938 2.33789,1.75927 3.4654,1.91974 5.15728,5.76025 5.23828,11.91944 0,4.55937 -0.32166,5.83913 -2.25586,8.71875 -1.37008,2.07973 -3.46671,3.91951 -5.56201,4.87939 -3.06228,1.35982 -5.48052,1.51905 -24.09668,1.51905 z m 91.14697,0 c -22.64574,0 -23.28985,-0.1603 -27.31933,-5.11963 -5.6413,-7.19904 -3.62623,-19.83699 3.86865,-24.31641 1.2089,-0.79988 7.5744,-3.51945 14.02149,-6.0791 9.18739,-3.67953 11.76709,-5.03982 11.76709,-6.15967 0,-1.35982 -1.04897,-1.51873 -15.87745,-1.67871 l -15.95507,-0.24023 -0.2417,-7.83838 -0.24317,-7.83985 20.47119,0.24024 20.46973,0.23877 3.30322,2.24121 c 4.5131,2.87962 6.60791,7.19871 6.60791,13.35791 0,5.9992 -2.09348,10.47804 -6.28418,13.11767 -1.61188,1.11986 -8.54381,4.23984 -15.23291,6.95948 -7.33358,2.8796 -12.32959,5.35861 -12.32959,5.99853 0,0.87988 2.90157,1.12176 13.78125,1.28174 l 13.78125,0.23877 3.06153,7.83838 3.06299,7.75928 z M 760.70524,369.709 c 6.60848,0 8.38184,-1.03931 8.38184,-4.79883 0,-3.83949 -1.77331,-4.79882 -8.94581,-4.79882 h -6.36621 v 4.23925 c 0,2.3997 0.24167,4.55886 0.56397,4.79883 0.2418,0.31995 3.14271,0.55957 6.36621,0.55957 z m -65.03028,-6.27978 c 0.0647,0.0222 0.13207,0.0138 0.20362,-0.0264 0.47691,-0.26794 1.15105,-1.99137 2.61181,-6.09082 4.513,-12.1584 4.83472,-10.79883 -2.74072,-10.79883 -5.96364,0 -6.52747,0.15864 -6.04394,1.43848 0.32236,0.71989 1.45135,3.91988 2.57959,6.95947 1.12826,3.11959 2.41688,6.47975 2.81982,7.59961 0.204,0.51743 0.3758,0.85186 0.56982,0.91846 z m 58.01954,-15.31641 h 7.5747 c 8.70379,0 9.67097,-0.5605 9.26807,-5.35986 -0.3224,-4.07947 -2.49825,-5.11938 -10.31543,-4.8794 l -6.04394,0.24024 -0.2417,5.03906 z" /></g></svg>
